# xmcd
#
# Track frame offsets:
#	150
#	12462
#	25835
#	38402
#	55540
#	66270
#	77855
#	93497
#	106860
#	120170
#	135772
#	148222
#	161185
#	176425
#	192207
#
# Disc length: 2776
#
# Revision: 2
# Processed by: cddbd v1.5.1PL0 Copyright (c) Steve Scherf et al.
# Submitted via: audiograbber 1.81.02
# Normalized: r1:DSETVAR1
#
DISCID=b90ad60f
DTITLE=Various Artist - Ladies of Country
DYEAR=1900
DGENRE=
TTITLE0=Dolly Parton - Jolene
TTITLE1=Dolly Parton - Hoer You Come Again
TTITLE2=Dolly Parton - 9 To 5
TTITLE3=Dolly Parton - Save The Last Dance For Me
TTITLE4=Dolly Parton - Love Is Like A Butterfly
TTITLE5=Crystal Gayle - Dont It Make My Brown Eyes Blue
TTITLE6=Crystal Gayle - Ill Get Over You
TTITLE7=Crystal Gayle - Why Have You Left The One You Left Me For
TTITLE8=Crystal Gayle - Talking In Your Sleep
TTITLE9=Crystal Gayle - When I Dream I Dream Of You
TTITLE10=Billie Jo Spears - What I've Got In Mind
TTITLE11=Billie Jo Spears - 57 Chevrolet
TTITLE12=Billie Jo Spears - I Will Survive
TTITLE13=Billie Jo Spears - Sing Me An Old Fashioned Song
TTITLE14=Billie Jo Spears - Blanket On The Ground
EXTD=
EXTT0=
EXTT1=
EXTT2=
EXTT3=
EXTT4=
EXTT5=
EXTT6=
EXTT7=
EXTT8=
EXTT9=
EXTT10=
EXTT11=
EXTT12=
EXTT13=
EXTT14=
PLAYORDER=
